<svg xmlns="http://www.w3.org/2000/svg" xml:space="preserve" height="512" viewBox="0 0 656 512" width="656" version="1.1"><defs><clipPath id="a" clipPathUnits="userSpaceOnUse"><path d="M0 841.89h1190.6V0H0v841.89z"/></clipPath></defs><path d="M479.375 311.613l-103.256 66.076L325.525 246.8l111.145-97.438 42.705 162.25z" fill="#2793d8"/><path d="M248.038 135.35L144.4 200.863l-75.237-137.1L175.048.012l72.99 135.337z" fill="#2897de"/><path d="M643.05 305.238L535.303 365.02l-19.714-3.204 106.456-61.32 21.006 4.74z" fill="#3058a0"/><path d="M622.05 300.5l-106.455 61.32-29.07-40.27 112.152-83.178L622.05 300.5z" fill="#2796dd"/><path d="M598.413 239.575l18.602 9.912 25.03 54.64-19.996-3.627-23.637-60.925z" fill="#fff"/><path stroke-linejoin="round" d="M598.413 239.575l18.602 9.912 25.03 54.64-19.996-3.627-23.637-60.925z" stroke="#000" stroke-width="3.125" fill="none"/><path d="M636.763 335.263L529.87 397.918l-6.568-25.565 104.408-59.188 9.052 22.098z" fill="#2795db"/><path d="M655.563 337.875l-106.915 61.021-18.775-.98 106.888-62.655 18.799 2.614z" fill="#3058a0"/><path d="M645.688 314.925l8.895 21.881-16.365-2.265-9.204-21.427 16.673 1.811z" fill="#fff"/><path stroke-linejoin="round" d="M645.688 314.925l8.895 21.881-16.365-2.265-9.204-21.427 16.673 1.811z" stroke="#000" stroke-width="3.125" fill="none"/><path d="M580.725 275.175l-106.421 61.369-13.059-32.764 107.158-60.278 12.322 31.673z" fill="#2796dd"/><path d="M610.3 307.788l-108.301 60.947-20.504-2.933 105.665-62.488 23.135 4.474zM568.15 244.725L461.245 303.78l-15.035-5.519 107.022-60.479 14.918 6.943z" fill="#3058a0"/><path d="M597.413 330.938l-104.54 60.977-30.56-2.29 104.565-64.126 30.535 5.438z" fill="#3058a0"/><path d="M566.888 325.5l-104.565 64.126-55.875-96.407 112.698-96.72 47.739 129z" fill="#2796dc"/><path d="M565.237 272.663l15.492 2.516-12.324-31.673-15.169-5.72 12.001 34.877m42.735 34.038l-20.81-3.389 9.24 26.5-29.52-4.316-47.968-127.737 59.504 32.707 29.555 76.235z" fill="#fff"/><path stroke-linejoin="round" d="M565.237 272.663l15.492 2.516-12.324-31.673-15.169-5.72 12.001 34.877m42.735 34.038l-20.81-3.389 9.24 26.5-29.52-4.316-47.968-127.737 59.504 32.707 29.555 76.235z" stroke="#000" stroke-width="3.125" fill="none"/><path d="M504.425 251.438l-105.6 62.595-20.392-45.668 106.54-61.199 19.447 44.271z" fill="#2896dd"/><path d="M532 320.663l-104.024 64.93-14.321-34.05 104.766-63.823L532 320.662z" fill="#2796dd"/><path d="M553.462 324.675l-105.385 63.304-20.105-2.387 104.022-64.93 21.466 4.013zM486.112 208.462l-12.52 4.84-11.267-4.082 11.372-6.16 12.415 5.402zM518.425 287.725l-36.599 21.57-4.32-12.125 18.991-13.012 21.928 3.567zM505.938 317.188L401.565 380.97l-25.44-3.287 102.914-65.573 26.899 5.076zM468.787 312.825l-104.11 65.194-105.866-7.964 101.178-69.166 108.797 11.936z" fill="#3058a0"/><path d="M321.688 198.975L218.32 264.889l12.064-31.03 104.493-64.236-13.19 29.352z" fill="#2898e0"/><path d="M359.988 300.888l-101.18 69.166-40.495-105.159L321.68 198.98l38.307 101.908z" fill="#2795dc"/><path d="M334.875 169.625l-104.492 64.236-85.98-33.005 103.637-65.512 86.837 34.281z" fill="#3058a0"/><path d="M174.975 1.5l241.462 135.313-30.72 75.357 53.758 19.076 28.22 80.354-107.709-10.706-38.305-101.908 13.19-29.352-86.837-34.288L174.97 1.496z" fill="#fff"/><path stroke-linejoin="round" d="M174.975 1.5l241.462 135.313-30.72 75.357 53.758 19.076 28.22 80.354-107.709-10.706-38.305-101.908 13.19-29.352-86.837-34.288L174.97 1.496z" stroke="#000" stroke-width="3.125" fill="none"/><path d="M262.75 352.05l-91.774 79.624 22.043-76.538 95.303-73.165-25.572 70.079z" fill="#2898e0"/><path d="M426.55 412.826l-100.219 70.98-129.025 28.559 93.136-86.354 136.113-13.185z" fill="#3058a0"/><path d="M290.438 426.011L197.3 512.365l-26.324-80.688 91.774-79.623 27.688 73.957z" fill="#4ec0f5"/><path d="M288.325 281.975l-95.304 73.164-135.487-4.4 84.474-72.58 146.312 3.816z" fill="#3058a0"/><path d="M142 278.163l-84.474 72.58L-.15 223.63l85.154-79.168L142 278.162z" fill="#2897de"/><g clip-path="url(#a)" transform="matrix(1.25 0 0 -1.25 -362.775 820.6)"><path d="M358.2 539.68c8.989-2.442 177.26-45.086 179.52-47.105l29.961-81.333-5.617-23.336 47.669-1.033 20.881-59.709-108.04-11.493-22.15 59.166 20.458 56.063-117.06 3.053-45.62 105.72z" fill="#fff"/><path stroke-linejoin="round" d="M358.2 539.68c8.989-2.442 177.26-45.086 179.52-47.105l29.961-81.333-5.617-23.336 47.669-1.033 20.881-59.709-108.04-11.493-22.15 59.166 20.458 56.063-117.06 3.053-45.62 105.72z" stroke="#000" stroke-width="2.5" fill="none"/><path d="M678.13 458.53l15.629-3.199-15.562 35.416-9.022 3.281 8.955-35.498m5.786 51.995l48.243-112.86-16.341 2.281-10.863 26.354-17.542 2.854 6.976-25.064-20.669 3.102-34.314 128.75 44.51-25.417z" fill="#fff"/><path stroke-linejoin="round" d="M678.13 458.53l15.629-3.199-15.562 35.416-9.022 3.281 8.955-35.498m5.786 51.995l48.243-112.86-16.341 2.281-10.863 26.354-17.542 2.854 6.976-25.064-20.669 3.102-34.314 128.75 44.51-25.417z" stroke="#000" stroke-width="2.5" fill="none"/></g></svg>