<?xml version="1.0" encoding="UTF-8" standalone="no"?>
<svg id="svg5335" xmlns:rdf="http://www.w3.org/1999/02/22-rdf-syntax-ns#" xmlns="http://www.w3.org/2000/svg" height="234" viewBox="0 0 383 234" width="383" version="1.1" xmlns:cc="http://creativecommons.org/ns#" xmlns:dc="http://purl.org/dc/elements/1.1/">
 <path id="path5345" d="m289.77 196.46-11.975 10.395-12.493-17.896-17.873 23.177-15.879-29.086-21.682 29.684-19.846-22.428-17.652 42.627-18.369-39.711-27.625 25.992-10.397-23.881-32.588 26.555 2.5394-34.259-31.134 14.394 2.6243-33.49-54.35 9.4681l34.963-33.4-34.79-18.01 26.439-16.86-27.972-36.649s27.809 3.3204 36.763 3.5021l-18.257-45.038 41.513 23.739 2.4015-24.074 28.127 21.209 13.002-34.937 21.071 31.362 8.4816-18.934 8.8928 15.419 26.002-43.831 16.685 49.308 26.788-33.484 9.2018 28.633 41.24-38.709 4.3196 46.909 30.66-21.454 2.6793 30.035 45.864-9.4407-21.502 35.682 37.022 1.3901-19.778 30.233 38.639 28.582-56.729 11.193 16.471 27.924-27.096-4.8098 1.5319 33.322s-10.661-10.668-25.939-20.338z" fill="#fff845"/>
</svg>
