<?xml version="1.0" encoding="UTF-8" standalone="no"?>
<svg xmlns:rdf="http://www.w3.org/1999/02/22-rdf-syntax-ns#" xmlns="http://www.w3.org/2000/svg" xml:space="preserve" height="512" viewBox="0 0 656 511.99998" width="656" version="1.1" xmlns:cc="http://creativecommons.org/ns#" xmlns:dc="http://purl.org/dc/elements/1.1/">
  <defs id="defs6"><clipPath id="clipPath152" clipPathUnits="userSpaceOnUse">
    <path id="path154" d="m0 841.89h1190.6v-841.89h-1190.6v841.89z"/></clipPath>
  </defs><g id="g10" transform="matrix(1.25 0 0 -1.25 0 512)"><g id="g12" transform="translate(383.5 160.31)"><path id="path14" d="m0 0-82.605-52.861-40.475 104.71 88.916 77.951 34.164-129.8z" fill="#2793d8"/></g><g id="g16" transform="translate(198.43 301.32)"><path id="path18" d="m0 0-82.91-52.41-60.19 109.68 84.708 51 58.392-108.27z" fill="#2897de"/></g><g id="g20" transform="translate(514.44 165.41)"><path id="path22" d="m0 0-86.198-47.827-15.771 2.563l85.165 49.056 16.805-3.792z" fill="#3058a0"/></g><g id="g24" transform="translate(497.64 169.2)"><path id="path26" d="m0 0-85.164-49.056-23.256 32.216 89.722 66.542 18.698-49.702z" fill="#2796dd"/></g><g id="g28" transform="translate(478.73 217.94)"><path id="path30" d="m0 0 14.882-7.93 20.024-43.711-15.997 2.901-18.909 48.74z" fill="#fff"/></g><g id="g32" transform="translate(478.73 217.94)"><path id="path34" stroke-linejoin="round" d="m0 0 14.882-7.93 20.024-43.711-15.997 2.901-18.909 48.74z" stroke="#000" stroke-width="2.5" fill="none"/></g><g id="g36" transform="translate(509.41 141.39)"><path id="path38" d="m0 0-85.513-50.124-5.255 20.452 83.527 47.35l7.241-17.678z" fill="#2795db"/></g><g id="g40" transform="translate(524.45 139.3)"><path id="path42" d="m0 0-85.532-48.817-15.02 0.784l85.511 50.124 15.039-2.091z" fill="#3058a0"/></g><g id="g44" transform="translate(516.55 157.66)"><path id="path46" d="m0 0 7.116-17.505-13.092 1.812-7.363 17.142 13.339-1.449z" fill="#fff"/></g><g id="g48" transform="translate(516.55 157.66)"><path id="path50" stroke-linejoin="round" d="m0 0 7.116-17.505-13.092 1.812-7.363 17.142 13.339-1.449z" stroke="#000" stroke-width="2.5" fill="none"/></g><g id="g52" transform="translate(464.58 189.46)"><path id="path54" d="m0 0-85.137-49.095-10.447 26.211 85.726 48.222 9.858-25.338z" fill="#2796dd"/></g><g id="g56" transform="translate(488.24 163.37)"><path id="path58" d="m0 0-86.641-48.758-16.403 2.346l84.532 49.991 18.508-3.579z" fill="#3058a0"/></g><g id="g60" transform="translate(454.52 213.82)"><path id="path62" d="m0 0-85.524-47.244-12.028 4.415 85.618 48.383 11.934-5.554z" fill="#3058a0"/></g><g id="g64" transform="translate(477.93 144.85)"><path id="path66" d="m0 0-83.631-48.782-24.449 1.832 83.652 51.301 24.428-4.351z" fill="#3058a0"/></g><g id="g68" transform="translate(453.51 149.2)"><path id="path70" d="m0 0-83.652-51.301-44.7 77.126 90.159 77.376l38.191-103.2z" fill="#2796dc"/></g><g id="g72" transform="translate(452.19 191.47)"><path id="path74" d="m0 0 12.393-2.013-9.859 25.338-12.135 4.576 9.601-27.901m34.188-27.231-16.648 2.711 7.391-21.199-23.616 3.452-38.374 102.19 47.603-26.166 23.644-60.988z" fill="#fff"/></g><g id="g76" transform="translate(452.19 191.47)"><path id="path78" stroke-linejoin="round" d="m0 0 12.393-2.013-9.859 25.338-12.135 4.576 9.601-27.901m34.188-27.231-16.648 2.711 7.391-21.199-23.616 3.452-38.374 102.19 47.603-26.166 23.644-60.988z" stroke="#000" stroke-width="2.5" fill="none"/></g><g id="g80" transform="translate(403.54 208.45)"><path id="path82" d="m0 0-84.48-50.076-16.314 36.534 85.232 48.959l15.558-35.417z" fill="#2896dd"/></g><g id="g84" transform="translate(425.6 153.07)"><path id="path86" d="m0 0-83.219-51.945-11.457 27.24 83.813 51.059l10.863-26.354z" fill="#2796dd"/></g><g id="g88" transform="translate(442.77 149.86)"><path id="path90" d="m0 0-84.308-50.643-16.084 1.909l83.217 51.945 17.173-3.211z" fill="#3058a0"/></g><g id="g92" transform="translate(388.89 242.83)"><path id="path94" d="m0 0-10.017-3.872-9.013 3.266 9.098 4.928 9.932-4.322z" fill="#3058a0"/></g><g id="g96" transform="translate(414.74 179.42)"><path id="path98" d="m0 0-29.279-17.256-3.456 9.7 15.193 10.41l17.542-2.854z" fill="#3058a0"/></g><g id="g100" transform="translate(404.75 155.85)"><path id="path102" d="m0 0-83.498-51.027-20.352 2.63l82.331 52.458 21.519-4.061z" fill="#3058a0"/></g><g id="g104" transform="translate(375.03 159.34)"><path id="path106" d="m0 0-83.289-52.155-84.692 6.371l80.942 55.333 87.038-9.549z" fill="#3058a0"/></g><g id="g108" transform="translate(257.35 250.42)"><path id="path110" d="m0 0-82.693-52.731 9.651 24.824l83.594 51.389-10.552-23.482z" fill="#2898e0"/></g><g id="g112" transform="translate(287.99 168.89)"><path id="path114" d="m0 0-80.943-55.333-32.397 84.127 82.695 52.732 30.645-81.526z" fill="#2795dc"/></g><g id="g116" transform="translate(267.9 273.9)"><path id="path118" d="m0 0-83.594-51.389-68.784 26.404 82.91 52.41l69.47-27.425z" fill="#3058a0"/></g><g id="g120" transform="translate(139.98 408.4)"><path id="path122" d="m0 0 193.17-108.25-24.576-60.286 43.006-15.261 22.576-64.283-86.167 8.565-30.644 81.526 10.552 23.482l-69.47 27.43-58.45 107.08z" fill="#fff"/></g><g id="g124" transform="translate(139.98 408.4)"><path id="path126" stroke-linejoin="round" d="m0 0 193.17-108.25-24.576-60.286 43.006-15.261 22.576-64.283-86.167 8.565-30.644 81.526 10.552 23.482l-69.47 27.43-58.45 107.08z" stroke="#000" stroke-width="2.5" fill="none"/></g><g id="g128" transform="translate(210.2 127.96)"><path id="path130" d="m0 0-73.419-63.699 17.634 61.23 76.243 58.532-20.458-56.063z" fill="#2898e0"/></g><g id="g132" transform="translate(341.24 79.339)"><path id="path134" d="m0 0-80.175-56.784-103.22-22.847 74.509 69.083l108.89 10.548z" fill="#3058a0"/></g><g id="g136" transform="translate(232.35 68.791)"><path id="path138" d="m0 0-74.51-69.083-21.059 64.55 73.419 63.699 22.15-59.166z" fill="#4ec0f5"/></g><g id="g140" transform="translate(230.66 184.02)"><path id="path142" d="m0 0-76.243-58.531-108.39 3.52 67.579 58.064l117.05-3.053z" fill="#3058a0"/></g><g id="g144" transform="translate(113.6 187.07)"><path id="path146" d="m0 0-67.579-58.064-46.141 101.69 68.123 63.334 45.597-106.96z" fill="#2897de"/></g><g id="g148" transform="translate(-290.22 -246.88)"><g id="g150" clip-path="url(#clipPath152)"><g id="g156" transform="translate(358.2 539.68)"><path id="path158" d="m0 0c8.989-2.442 177.26-45.086 179.52-47.105l29.961-81.333-5.617-23.336 47.669-1.033 20.881-59.709-108.04-11.493-22.15 59.166 20.458 56.063-117.06 3.053-45.62 105.72z" fill="#fff"/></g><g id="g160" transform="translate(358.2 539.68)"><path id="path162" stroke-linejoin="round" d="m0 0c8.989-2.442 177.26-45.086 179.52-47.105l29.961-81.333-5.617-23.336 47.669-1.033 20.881-59.709-108.04-11.493-22.15 59.166 20.458 56.063-117.06 3.053-45.62 105.72z" stroke="#000" stroke-width="2.5" fill="none"/></g><g id="g164" transform="translate(678.13 458.53)"><path id="path166" d="m0 0 15.629-3.199-15.562 35.416-9.022 3.281 8.955-35.498m5.786 51.995 48.243-112.86-16.341 2.281-10.863 26.354-17.542 2.854 6.976-25.064-20.669 3.102-34.314 128.75 44.51-25.417z" fill="#fff"/></g><g id="g168" transform="translate(678.13 458.53)"><path id="path170" stroke-linejoin="round" d="m0 0 15.629-3.199-15.562 35.416-9.022 3.281 8.955-35.498m5.786 51.995 48.243-112.86-16.341 2.281-10.863 26.354-17.542 2.854 6.976-25.064-20.669 3.102-34.314 128.75 44.51-25.417z" stroke="#000" stroke-width="2.5" fill="none"/></g></g></g></g></svg>
